<svg id="Layer_1" data-name="Layer 1" xmlns="http://www.w3.org/2000/svg" viewBox="0 0 533.43 507.32"><defs><style>.cls-1{fill:#fff;}</style></defs><title>star</title><polygon class="cls-1" points="266.71 420.09 102.54 506.4 133.89 323.6 1.07 194.13 184.63 167.46 266.71 1.13 348.8 167.46 532.35 194.13 399.53 323.6 430.89 506.4 266.71 420.09"/><path d="M266.5,2.32,348,167.5l.23.47.52.08,182.29,26.49L399.16,323.11l-.38.37.09.52L430,505.55,267,419.83l-.47-.24-.47.24L103,505.55,134.13,324l.09-.52-.38-.37L1.94,194.54,184.22,168l.52-.08.23-.47L266.5,2.32m0-2.26-82.42,167L-.21,193.84l133.36,130L101.66,507.38,266.5,420.72l164.84,86.66L399.86,323.83l133.36-130L348.92,167.06,266.5.06Z" transform="translate(0.21 -0.06)"/></svg>